<svg xmlns="http://www.w3.org/2000/svg" width="1024" height="1024" viewBox="0 0 1024 1024">
  <rect width="1024" height="1024" fill="#F8F5F0"/>
  
  <!-- SIDE VIEW: cube with hidden spherical cavity and cutting plane -->
  <g transform="translate(300, 420)">
    <text x="0" y="-180" font-size="32" text-anchor="middle" fill="#2A2A2A" font-family="sans-serif">Side View</text>
    <!-- Cube outline -->
    <rect x="-100" y="-100" width="200" height="200" fill="none" stroke="#2A2A2A" stroke-width="3"/>
    <!-- Hidden spherical cavity (hidden lines) -->
    <circle cx="0" cy="-20" r="60" fill="none" stroke="#2A2A2A" stroke-width="2" stroke-dasharray="6,4"/>
    <!-- Cutting plane line A-A -->
    <line x1="0" y1="-140" x2="0" y2="140" stroke="#E6A57E" stroke-width="3" stroke-dasharray="12,6"/>
    <!-- A-A label -->
    <text x="15" y="-130" font-size="24" text-anchor="start" fill="#E6A57E" font-family="sans-serif">A-A</text>
    <!-- Direction arrows -->
    <polygon points="-12,-130 0,-140 12,-130" fill="none" stroke="#E6A57E" stroke-width="2"/>
    <polygon points="-12,130 0,140 12,130" fill="none" stroke="#E6A57E" stroke-width="2"/>
    <!-- Labels -->
    <text x="-90" y="-120" font-size="20" text-anchor="start" fill="#2A2A2A" font-family="sans-serif">cube</text>
    <text x="70" y="-20" font-size="20" text-anchor="start" fill="#2A2A2A" font-family="sans-serif">cavity</text>
  </g>

  <!-- SECTION VIEW A-A: cube cut through center showing hemispherical cavity -->
  <g transform="translate(724, 420)">
    <text x="0" y="-180" font-size="32" text-anchor="middle" fill="#2A2A2A" font-family="sans-serif">Section View A-A</text>
    <!-- Cube cross-section (hatched solid material) -->
    <rect x="-100" y="-100" width="200" height="200" fill="#D4C4A8" opacity="0.3" stroke="#2A2A2A" stroke-width="3"/>
    <!-- HATCHING: 45° lines on cut face -->
    <line x1="-90" y1="-90" x2="-70" y2="-70" stroke="#2A2A2A" stroke-width="1" opacity="0.35"/>
    <line x1="-70" y1="-90" x2="-50" y2="-70" stroke="#2A2A2A" stroke-width="1" opacity="0.35"/>
    <line x1="-50" y1="-90" x2="-30" y2="-70" stroke="#2A2A2A" stroke-width="1" opacity="0.35"/>
    <line x1="-30" y1="-90" x2="-10" y2="-70" stroke="#2A2A2A" stroke-width="1" opacity="0.35"/>
    <line x1="-10" y1="-90" x2="10" y2="-70" stroke="#2A2A2A" stroke-width="1" opacity="0.35"/>
    <line x1="10" y1="-90" x2="30" y2="-70" stroke="#2A2A2A" stroke-width="1" opacity="0.35"/>
    <line x1="30" y1="-90" x2="50" y2="-70" stroke="#2A2A2A" stroke-width="1" opacity="0.35"/>
    <line x1="50" y1="-90" x2="70" y2="-70" stroke="#2A2A2A" stroke-width="1" opacity="0.35"/>
    <line x1="70" y1="-90" x2="90" y2="-70" stroke="#2A2A2A" stroke-width="1" opacity="0.35"/>
    <line x1="90" y1="-90" x2="110" y2="-70" stroke="#2A2A2A" stroke-width="1" opacity="0.35"/>
    <line x1="-90" y1="-70" x2="-70" y2="-50" stroke="#2A2A2A" stroke-width="1" opacity="0.35"/>
    <line x1="-70" y1="-70" x2="-50" y2="-50" stroke="#2A2A2A" stroke-width="1" opacity="0.35"/>
    <line x1="-50" y1="-70" x2="-30" y2="-50" stroke="#2A2A2A" stroke-width="1" opacity="0.35"/>
    <line x1="-30" y1="-70" x2="-10" y2="-50" stroke="#2A2A2A" stroke-width="1" opacity="0.35"/>
    <line x1="-10" y1="-70" x2="10" y2="-50" stroke="#2A2A2A" stroke-width="1" opacity="0.35"/>
    <line x1="10" y1="-70" x2="30" y2="-50" stroke="#2A2A2A" stroke-width="1" opacity="0.35"/>
    <line x1="30" y1="-70" x2="50" y2="-50" stroke="#2A2A2A" stroke-width="1" opacity="0.35"/>
    <line x1="50" y1="-70" x2="70" y2="-50" stroke="#2A2A2A" stroke-width="1" opacity="0.35"/>
    <line x1="70" y1="-70" x2="90" y2="-50" stroke="#2A2A2A" stroke-width="1" opacity="0.35"/>
    <line x1="90" y1="-70" x2="110" y2="-50" stroke="#2A2A2A" stroke-width="1" opacity="0.35"/>
    <line x1="-90" y1="-50" x2="-70" y2="-30" stroke="#2A2A2A" stroke-width="1" opacity="0.35"/>
    <line x1="-70" y1="-50" x2="-50" y2="-30" stroke="#2A2A2A" stroke-width="1" opacity="0.35"/>
    <line x1="-50" y1="-50" x2="-30" y2="-30" stroke="#2A2A2A" stroke-width="1" opacity="0.35"/>
    <line x1="-30" y1="-50" x2="-10" y2="-30" stroke="#2A2A2A" stroke-width="1" opacity="0.35"/>
    <line x1="-10" y1="-50" x2="10" y2="-30" stroke="#2A2A2A" stroke-width="1" opacity="0.35"/>
    <line x1="10" y1="-50" x2="30" y2="-30" stroke="#2A2A2A" stroke-width="1" opacity="0.35"/>
    <line x1="30" y1="-50" x2="50" y2="-30" stroke="#2A2A2A" stroke-width="1" opacity="0.35"/>
    <line x1="50" y1="-50" x2="70" y2="-30" stroke="#2A2A2A" stroke-width="1" opacity="0.35"/>
    <line x1="70" y1="-50" x2="90" y2="-30" stroke="#2A2A2A" stroke-width="1" opacity="0.35"/>
    <line x1="90" y1="-50" x2="110" y2="-30" stroke="#2A2A2A" stroke-width="1" opacity="0.35"/>
    <line x1="-90" y1="-30" x2="-70" y2="-10" stroke="#2A2A2A" stroke-width="1" opacity="0.35"/>
    <line x1="-70" y1="-30" x2="-50" y2="-10" stroke="#2A2A2A" stroke-width="1" opacity="0.35"/>
    <line x1="-50" y1="-30" x2="-30" y2="-10" stroke="#2A2A2A" stroke-width="1" opacity="0.35"/>
    <line x1="-30" y1="-30" x2="-10" y2="-10" stroke="#2A2A2A" stroke-width="1" opacity="0.35"/>
    <line x1="-10" y1="-30" x2="10" y2="-10" stroke="#2A2A2A" stroke-width="1" opacity="0.35"/>
    <line x1="10" y1="-30" x2="30" y2="-10" stroke="#2A2A2A" stroke-width="1" opacity="0.35"/>
    <line x1="30" y1="-30" x2="50" y2="-10" stroke="#2A2A2A" stroke-width="1" opacity="0.35"/>
    <line x1="50" y1="-30" x2="70" y2="-10" stroke="#2A2A2A" stroke-width="1" opacity="0.35"/>
    <line x1="70" y1="-30" x2="90" y2="-10" stroke="#2A2A2A" stroke-width="1" opacity="0.35"/>
    <line x1="90" y1="-30" x2="110" y2="-10" stroke="#2A2A2A" stroke-width="1" opacity="0.35"/>
    <line x1="-90" y1="-10" x2="-70" y2="10" stroke="#2A2A2A" stroke-width="1" opacity="0.35"/>
    <line x1="-70" y1="-10" x2="-50" y2="10" stroke="#2A2A2A" stroke-width="1" opacity="0.35"/>
    <line x1="-50" y1="-10" x2="-30" y2="10" stroke="#2A2A2A" stroke-width="1" opacity="0.35"/>
    <line x1="-30" y1="-10" x2="-10" y2="10" stroke="#2A2A2A" stroke-width="1" opacity="0.35"/>
    <line x1="-10" y1="-10" x2="10" y2="10" stroke="#2A2A2A" stroke-width="1" opacity="0.35"/>
    <line x1="10" y1="-10" x2="30" y2="10" stroke="#2A2A2A" stroke-width="1" opacity="0.35"/>
    <line x1="30" y1="-10" x2="50" y2="10" stroke="#2A2A2A" stroke-width="1" opacity="0.35"/>
    <line x1="50" y1="-10" x2="70" y2="10" stroke="#2A2A2A" stroke-width="1" opacity="0.35"/>
    <line x1="70" y1="-10" x2="90" y2="10" stroke="#2A2A2A" stroke-width="1" opacity="0.35"/>
    <line x1="90" y1="-10" x2="110" y2="10" stroke="#2A2A2A" stroke-width="1" opacity="0.35"/>
    <line x1="-90" y1="10" x2="-70" y2="30" stroke="#2A2A2A" stroke-width="1" opacity="0.35"/>
    <line x1="-70" y1="10" x2="-50" y2="30" stroke="#2A2A2A" stroke-width="1" opacity="0.35"/>
    <line x1="-50" y1="10" x2="-30" y2="30" stroke="#2A2A2A" stroke-width="1" opacity="0.35"/>
    <line x1="-30" y1="10" x2="-10" y2="30" stroke="#2A2A2A" stroke-width="1" opacity="0.35"/>
    <line x1="-10" y1="10" x2="10" y2="30" stroke="#2A2A2A" stroke-width="1" opacity="0.35"/>
    <line x1="10" y1="10" x2="30" y2="30" stroke="#2A2A2A" stroke-width="1" opacity="0.35"/>
    <line x1="30" y1="10" x2="50" y2="30" stroke="#2A2A2A" stroke-width="1" opacity="0.35"/>
    <line x1="50" y1="10" x2="70" y2="30" stroke="#2A2A2A" stroke-width="1" opacity="0.35"/>
    <line x1="70" y1="10" x2="90" y2="30" stroke="#2A2A2A" stroke-width="1" opacity="0.35"/>
    <line x1="90" y1="10" x2="110" y2="30" stroke="#2A2A2A" stroke-width="1" opacity="0.35"/>
    <line x1="-90" y1="30" x2="-70" y2="50" stroke="#2A2A2A" stroke-width="1" opacity="0.35"/>
    <line x1="-70" y1="30" x2="-50" y2="50" stroke="#2A2A2A" stroke-width="1" opacity="0.35"/>
    <line x1="-50" y1="30" x2="-30" y2="50" stroke="#2A2A2A" stroke-width="1" opacity="0.35"/>
    <line x1="-30" y1="30" x2="-10" y2="50" stroke="#2A2A2A" stroke-width="1" opacity="0.35"/>
    <line x1="-10" y1="30" x2="10" y2="50" stroke="#2A2A2A" stroke-width="1" opacity="0.35"/>
    <line x1="10" y1="30" x2="30" y2="50" stroke="#2A2A2A" stroke-width="1" opacity="0.35"/>
    <line x1="30" y1="30" x2="50" y2="50" stroke="#2A2A2A" stroke-width="1" opacity="0.35"/>
    <line x1="50" y1="30" x2="70" y2="50" stroke="#2A2A2A" stroke-width="1" opacity="0.35"/>
    <line x1="70" y1="30" x2="90" y2="50" stroke="#2A2A2A" stroke-width="1" opacity="0.35"/>
    <line x1="90" y1="30" x2="110" y2="50" stroke="#2A2A2A" stroke-width="1" opacity="0.35"/>
    <line x1="-90" y1="50" x2="-70" y2="70" stroke="#2A2A2A" stroke-width="1" opacity="0.35"/>
    <line x1="-70" y1="50" x2="-50" y2="70" stroke="#2A2A2A" stroke-width="1" opacity="0.35"/>
    <line x1="-50" y1="50" x2="-30" y2="70" stroke="#2A2A2A" stroke-width="1" opacity="0.35"/>
    <line x1="-30" y1="50" x2="-10" y2="70" stroke="#2A2A2A" stroke-width="1" opacity="0.35"/>
    <line x1="-10" y1="50" x2="10" y2="70" stroke="#2A2A2A" stroke-width="1" opacity="0.35"/>
    <line x1="10" y1="50" x2="30" y2="70" stroke="#2A2A2A" stroke-width="1" opacity="0.35"/>
    <line x1="30" y1="50" x2="50" y2="70" stroke="#2A2A2A" stroke-width="1" opacity="0.35"/>
    <line x1="50" y1="50" x2="70" y2="70" stroke="#2A2A2A" stroke-width="1" opacity="0.35"/>
    <line x1="70" y1="50" x2="90" y2="70" stroke="#2A2A2A" stroke-width="1" opacity="0.35"/>
    <line x1="90" y1="50" x2="110" y2="70" stroke="#2A2A2A" stroke-width="1" opacity="0.35"/>
    <line x1="-90" y1="70" x2="-70" y2="90" stroke="#2A2A2A" stroke-width="1" opacity="0.35"/>
    <line x1="-70" y1="70" x2="-50" y2="90" stroke="#2A2A2A" stroke-width="1" opacity="0.35"/>
    <line x1="-50" y1="70" x2="-30" y2="90" stroke="#2A2A2A" stroke-width="1" opacity="0.35"/>
    <line x1="-30" y1="70" x2="-10" y2="90" stroke="#2A2A2A" stroke-width="1" opacity="0.35"/>
    <line x1="-10" y1="70" x2="10" y2="90" stroke="#2A2A2A" stroke-width="1" opacity="0.35"/>
    <line x1="10" y1="70" x2="30" y2="90" stroke="#2A2A2A" stroke-width="1" opacity="0.35"/>
    <line x1="30" y1="70" x2="50" y2="90" stroke="#2A2A2A" stroke-width="1" opacity="0.35"/>
    <line x1="50" y1="70" x2="70" y2="90" stroke="#2A2A2A" stroke-width="1" opacity="0.35"/>
    <line x1="70" y1="70" x2="90" y2="90" stroke="#2A2A2A" stroke-width="1" opacity="0.35"/>
    <line x1="90" y1="70" x2="110" y2="90" stroke="#2A2A2A" stroke-width="1" opacity="0.35"/>
    <!-- Hemispherical cavity (unhatched, filled with background color) -->
    <path d="M -60,-80 A 60,60 0 0,1 60,-80 Z" fill="#F8F5F0" stroke="#2A2A2A" stroke-width="2"/>
    <!-- Labels -->
    <text x="0" y="130" font-size="24" text-anchor="middle" fill="#2A2A2A" font-family="sans-serif">hemispherical cavity</text>
    <text x="0" y="160" font-size="20" text-anchor="middle" fill="#2A2A2A" font-family="sans-serif">cut face hatched</text>
  </g>
  <!-- Title -->
  <text x="512" y="920" font-size="48" text-anchor="middle" fill="#2A2A2A" font-family="sans-serif">Cross-Section</text>
  <text x="512" y="970" font-size="28" text-anchor="middle" fill="#2A2A2A" font-family="sans-serif">Cut plane reveals hemispherical cavity inside cube</text>
</svg>